<svg width="11" height="12" viewBox="0 0 11 12" fill="none" xmlns="http://www.w3.org/2000/svg">
<path d="M6.0625 7.53906H0.242188V6.3125H6.0625C6.63021 6.3125 7.09635 6.22135 7.46094 6.03906C7.82552 5.85677 8.09375 5.59896 8.26562 5.26562C8.44271 4.93229 8.53125 4.53906 8.53125 4.08594C8.53125 3.71615 8.44792 3.36198 8.28125 3.02344C8.11979 2.6849 7.85677 2.40625 7.49219 2.1875C7.13281 1.96875 6.65625 1.85938 6.0625 1.85938H3.35938V12H1.85938V0.625H6.0625C6.92188 0.625 7.64583 0.773438 8.23438 1.07031C8.82292 1.36198 9.26823 1.76823 9.57031 2.28906C9.8776 2.80469 10.0312 3.39844 10.0312 4.07031C10.0312 4.79948 9.8776 5.42448 9.57031 5.94531C9.26823 6.46094 8.82292 6.85677 8.23438 7.13281C7.64583 7.40365 6.92188 7.53906 6.0625 7.53906ZM5.96875 8.60938V9.84375H0.242188V8.60938H5.96875Z" fill="black"/>
</svg>
